<svg width="105" height="40" viewBox="0 0 105 40" fill="none" xmlns="http://www.w3.org/2000/svg">
<path d="M58.2475 14.6253C54.4083 19.3158 52.402 23.6277 53.6751 24.8003C55.1435 26.1553 60.4271 22.8137 65.4756 17.3362C70.5232 11.8607 73.425 6.32237 71.9557 4.96843C70.8161 3.91736 67.3793 5.69372 63.5381 9.10099L62.6376 8.25316C67.4122 4.12458 72.0533 2.21572 73.8942 3.91337C76.1654 6.00555 73.3134 12.7932 67.5277 19.0717C61.74 25.3493 55.2082 28.7416 52.938 26.6484C50.9496 24.8153 52.8882 19.3856 57.2842 13.8482L58.2475 14.6253ZM64.9158 25.427C65.135 25.3881 65.3581 25.3274 65.5792 25.2367C67.1492 24.5971 68.6604 23.7831 70.579 21.8643C71.9487 20.4944 73.0206 18.3176 73.4868 16.5721C73.5386 16.3786 73.5729 16.1809 73.5894 15.9813L73.0465 13.6141C72.7606 14.1671 70.7055 18.0814 68.5737 20.2942C66.1451 22.8147 62.3816 25.0633 62.3816 25.0633L64.9158 25.427Z" fill="white"/>
<path d="M55.4802 10.9591C56.035 11.6266 56.4215 12.0948 56.4215 12.0948C56.4215 12.0948 57.7255 11.6853 58.0781 11.6584C59.2705 11.5718 59.7348 11.8049 59.7348 11.8049C59.7348 11.8049 60.3464 12.3269 60.6363 12.5601C60.9272 12.7932 62.789 15.3506 62.789 15.3506C62.789 15.3506 63.2582 15.255 63.6606 15.3227C64.1836 15.4094 64.6488 15.6416 64.6488 15.6416C64.6488 15.6416 61.6255 12.4734 60.5785 11.4841C60.3424 11.2619 60.0306 10.973 59.6461 10.6293C59.6461 10.6293 58.0781 10.5546 57.5263 10.6412C56.9734 10.7289 55.4802 10.9581 55.4802 10.9581V10.9591ZM50.6348 5.60904C49.802 4.85685 48.8178 3.99507 48.253 3.60652C47.5716 3.13528 45.1998 1.77337 45.1998 1.77337L44.2993 0C44.2993 0 49.041 2.71685 52.8921 5.36296L50.6348 5.60904ZM58.4686 9.60611C57.1769 8.51727 55.8455 7.47645 54.477 6.48577L51.879 6.76572C52.4429 7.35452 53.6054 8.71942 54.6135 9.92093L58.4686 9.60611ZM45.4907 0.173352C45.4907 0.173352 50.7484 3.36443 51.9159 4.0419C53.3693 4.88475 57.2653 7.79188 57.584 8.05391C57.9048 8.31493 60.1721 10.3503 60.1721 10.3503L59.7059 8.37371C59.7059 8.37371 56.828 6.27954 54.9094 5.02921C53.4171 4.05684 49.4155 1.74349 48.8627 1.48246C48.3108 1.22144 46.451 0.232133 46.451 0.232133L45.4907 0.173352ZM23.6309 10.6034H18.6949V11.515H18.9898C19.4869 11.515 19.8485 12.0251 19.8485 12.5611V15.0567L14.4892 15.0577C13.219 12.4335 10.639 10.6402 7.66346 10.6402C3.43078 10.6392 0 14.2737 0 18.7589C0 23.2431 3.43078 26.8786 7.66346 26.8786C10.5234 26.8786 13.0168 25.2178 14.3338 22.757H19.8485L19.8435 29.2178C18.0026 28.3311 15.6258 27.7902 13.0338 27.7832L12.98 27.7822C7.11757 27.7991 2.37285 30.5269 2.37285 33.8914C2.37285 37.2538 7.11757 39.9836 12.981 39.9985V40.0005L13.0079 39.9995H13.0338C18.8972 39.9836 23.6419 37.2538 23.6419 33.8914L23.6319 33.8515L23.6309 10.6034ZM7.66346 23.9953C5.48087 23.9953 3.7097 21.6501 3.7097 18.7589C3.7097 15.8677 5.48087 13.5225 7.66446 13.5225C9.84605 13.5225 11.6172 15.8677 11.6172 18.7589C11.6172 21.6501 9.84704 23.9953 7.66346 23.9953ZM13.0079 37.3435C9.39479 37.3355 6.47006 35.7933 6.47006 33.8914C6.47006 31.9885 9.39479 30.4462 13.0079 30.4383C16.6199 30.4462 19.5437 31.9885 19.5437 33.8914C19.5437 35.7943 16.6199 37.3355 13.0079 37.3435ZM19.8485 20.1816H15.2074C15.3473 19.3477 15.3634 18.4976 15.2552 17.659H19.8475L19.8485 20.1816ZM48.5798 16.9347V10.2377H43.6438V11.1503H43.9655C44.3809 11.1503 44.7973 11.6604 44.7973 12.1964V21.2546C43.4027 22.0317 41.6315 22.6235 39.701 22.6235H30.9308V11.1165H25.9101V12.0111H26.206C26.6622 12.0111 27.0248 12.4814 27.0248 13.0034V23.6148C27.0248 25.0374 28.1106 25.2925 28.8488 25.2925H39.7269C41.0418 25.2925 43.2284 24.9029 44.7973 23.9645V27.3976H28.2451V28.3092H28.6735C28.8896 28.3092 29.4116 28.8871 29.4116 29.3354V36.6939C29.4116 37.6603 30.1498 38.4374 31.4239 38.4374H44.7973L48.5798 38.4384V19.4792L51.7456 19.4523V16.9337L48.5798 16.9347ZM33.1941 35.8759V29.9481H44.7973V35.8759H33.1941ZM64.1667 33.4361H79.7606L79.7526 10.17H74.8156V11.0816H75.2719C75.3526 11.0816 75.9692 11.5907 75.9692 12.1277V27.1615L59.1879 27.1585C59.3921 27.3877 59.6322 27.7065 59.8224 28.0851C60.2299 28.9 60.1133 29.714 60.1133 29.714H75.9702L75.9762 30.8776H59.0962V31.7783H59.3373C59.8882 31.7783 60.2299 32.4089 60.2299 32.7506V36.5763C60.2299 38.009 61.7659 38.1036 62.1405 38.1036H79.8183V35.5292H64.1667V33.4361ZM96.1444 35.2971V26.6992H104.477V9.65393H99.5941V10.5556H99.9717C100.49 10.5556 100.757 11.1414 100.757 11.5429V16.2383H86.8811V9.64695H82.0059V10.5585H82.4612C82.5428 10.5585 83.1595 11.0686 83.1595 11.6046V24.877C83.1595 26.8098 84.9575 26.6753 84.9575 26.6753H92.1727V35.2871H82.3247C82.3247 35.2871 83.2511 35.7564 83.8359 37.8575H105V35.2971H96.1444ZM86.8612 24.1249V18.7818H100.757V24.1249H86.8612Z" fill="white"/>
</svg>
